<svg xmlns="http://www.w3.org/2000/svg" viewBox="0 0 329.73 316.1"><defs><style>.cls-1{fill:#1d1d1b;}</style></defs><title>uliving</title><g id="Camada_2" data-name="Camada 2"><g id="Camada_1-2" data-name="Camada 1"><path d="M89.32,290.78h-13v-82.1s2.56-.13,5.41,0c3.58.16,7.62,1,7.62,6.38Z"/><path d="M115.64,236.43h8.73a8.29,8.29,0,0,1,7.74,5.19c5.1,15.64,12.32,33.8,12.32,33.8h.22s3.51-9.24,12.36-33.8c1.68-4.67,5.87-5.19,9.68-5.19h6.43s-11.22,26.29-20.77,48.72c-1.21,2.84-3,5.45-8.47,5.45-4.69,0-7.08-2.24-9.15-7.08C127,265.32,115.64,236.43,115.64,236.43Z"/><path d="M188.53,290.78H175V236.53h5.6c3.79,0,8,1.05,8,6.09Zm1-69.7a7.84,7.84,0,1,1-7.84-7.91A7.87,7.87,0,0,1,189.57,221.08Z"/><path d="M113.85,290.78h-13.7V236.45h5.65c3.83,0,8,1.05,8,6.1Zm1.3-69.55a7.92,7.92,0,1,1-7.92-7.92A7.92,7.92,0,0,1,115.15,221.23Z"/><path d="M198,236.46h6c3.9,0,6.94,1.68,6.94,5.36v4.64h.23a17.18,17.18,0,0,1,6.3-7,18.58,18.58,0,0,1,10.61-3,21.1,21.1,0,0,1,9.14,1.82,18,18,0,0,1,6.24,4.78,19,19,0,0,1,3.57,6.82,27.77,27.77,0,0,1,1.13,7.92v33h-5c-4.45,0-8.77-2-8.77-7.26,0-12.34.11-22,.11-22a35.86,35.86,0,0,0-.34-4.84,12.75,12.75,0,0,0-1.48-4.56,9.62,9.62,0,0,0-3.12-3.35,9.38,9.38,0,0,0-5.28-1.32,11.65,11.65,0,0,0-9.59,4.5,14.25,14.25,0,0,0-2.33,4.56,17.63,17.63,0,0,0-.79,5.22v29H198S198,253.58,198,236.46Z"/><path d="M310.81,236.64V285.2A43.75,43.75,0,0,1,309.06,298a25.05,25.05,0,0,1-5.4,9.72,24.35,24.35,0,0,1-9.23,6.17,36.06,36.06,0,0,1-13.21,2.18,43.4,43.4,0,0,1-6.71-.55,45.75,45.75,0,0,1-7-1.64,42.54,42.54,0,0,1-6.61-2.73c-2.11-1.09-6.44-4.08-6.44-4.08,0-3.46,4.1-6.65,8.52-6.73,3.13-.06,5.2,1.19,8.4,2.47a26.16,26.16,0,0,0,9.72,1.91,20.33,20.33,0,0,0,7.92-1.37,12.75,12.75,0,0,0,5.13-3.78,15,15,0,0,0,2.73-5.7,29.68,29.68,0,0,0,.82-7.23v-3.84h-.22a18.36,18.36,0,0,1-7.26,5.9,23.31,23.31,0,0,1-9.88,2,25.65,25.65,0,0,1-10.7-2.18,24.13,24.13,0,0,1-8.13-5.9,27,27,0,0,1-5.19-8.68,29.78,29.78,0,0,1-1.86-10.54,31.5,31.5,0,0,1,1.8-10.7A26,26,0,0,1,261.4,244a24.5,24.5,0,0,1,8.08-5.9A25.13,25.13,0,0,1,280.13,236a23.74,23.74,0,0,1,10.37,2.29,17.48,17.48,0,0,1,7.64,7.1h.22s.78-4,3-6.32a8,8,0,0,1,5.34-2.39C308.06,236.56,310.81,236.64,310.81,236.64Zm-27.95,10a14.92,14.92,0,0,0-6.39,1.31,13.69,13.69,0,0,0-4.69,3.54,16,16,0,0,0-2.95,5.28,20.17,20.17,0,0,0-1,6.53,17.88,17.88,0,0,0,1,6.09,17.3,17.3,0,0,0,2.95,5.28,14.52,14.52,0,0,0,4.69,3.76,13.72,13.72,0,0,0,6.28,1.41,15.07,15.07,0,0,0,6.5-1.36,14.84,14.84,0,0,0,4.91-3.65,16.24,16.24,0,0,0,3.11-5.28,18,18,0,0,0,1.09-6.26,18.82,18.82,0,0,0-1.09-6.42,16.34,16.34,0,0,0-3.11-5.33A14.58,14.58,0,0,0,289.3,248,15.25,15.25,0,0,0,282.86,246.66Z"/><path d="M65.71,256.93c0,20.42-12.63,32.92-29.69,33.42l-2.55,0c-17.87,0-30-12.59-30-33.43v-48.3s3.68.09,7.51.09c4.62,0,7.68,2.66,7.68,7.84v40.37c0,11.15,4.38,18.16,12.58,19.22a36.2,36.2,0,0,0,4.88.1c8.78-.6,14.23-7.68,14.23-19.32v-40c0-5.14,3.76-8.3,7.69-8.3h7.69v48.29Z"/><path d="M10.06,10.92a42,42,0,0,0-.4,4.59c-.09,4-.16,7.89-.09,11.83a145.81,145.81,0,0,0,1.09,15.07,153.63,153.63,0,0,0,3,16.94A152.68,152.68,0,0,0,41.24,117.7a145.77,145.77,0,0,0,55,44.28,136.33,136.33,0,0,0,28.72,9.65q7,1.53,14.15,2.35c3.76.44,7.53.75,11.3.85A140.44,140.44,0,0,0,168,174.3c3.4-.35,6.78-.77,10.16-1.32a135.14,135.14,0,0,0,20.06-4.88,142.08,142.08,0,0,0,50-28.43A151,151,0,0,0,290.45,79a155.68,155.68,0,0,0,7.78-28.21c.89-5,1.48-10,1.93-15,.35-4,.45-8.1.44-12.15,0-3.89,0-7.78-.37-11.66-.05-.37-.14-.73-.21-1.09a6.84,6.84,0,0,0-2.56-.21H12.76c-.57,0-1.15,0-1.73,0-.31.05-.61.16-1,.25M155.48.05q71.58,0,143.15,0a13.9,13.9,0,0,1,3,.2A9.55,9.55,0,0,1,309,6.63a20.73,20.73,0,0,1,1,4.45q.71,5.61,1,11.26c.17,3.34.13,6.68.16,10s-.14,6.88-.42,10.3q-.45,5.64-1.31,11.23a152.33,152.33,0,0,1-7.54,29.49,155.62,155.62,0,0,1-111.66,98.08c-4.49,1-9,1.79-13.59,2.43a158.59,158.59,0,0,1-26.85,1.31c-3.41-.11-6.81-.3-10.19-.74-3-.39-6-.73-9-1.18a140.87,140.87,0,0,1-19.76-4.49,154.13,154.13,0,0,1-67.4-41A152.84,152.84,0,0,1,4.69,68.35a153.62,153.62,0,0,1-3-15.14c-.42-2.83-.68-5.69-1-8.54A152.56,152.56,0,0,1,.2,22.35c.12-2.86.45-5.71.74-8.56.16-1.71.38-3.41.64-5.11a10.27,10.27,0,0,1,2-4.84A9.67,9.67,0,0,1,11,0c1.26-.06,2.5,0,3.75,0H155.48Z"/><path d="M162.25,100.11c0-10,0-20,0-30.07a10.92,10.92,0,0,1,1.85-6.5,10.67,10.67,0,0,1,15.58-2c.41.34.77.71,1.15,1.09l42.54,42.34a11.93,11.93,0,0,1,2.69,3.69,10.47,10.47,0,0,1-3.23,12.61c-1.83,1.38-3.72,2.7-5.65,4a103.75,103.75,0,0,1-36,14.88c-2.26.46-4.52.87-6.8,1.17a10.23,10.23,0,0,1-10-4.29,9.77,9.77,0,0,1-2-6c0-2.57,0-5.16,0-7.73V100.12h0Z"/><path d="M149.3,100.11v23.07c0,2.57,0,5.15,0,7.73a9.77,9.77,0,0,1-2,6,10.25,10.25,0,0,1-10,4.29c-2.28-.3-4.54-.7-6.8-1.17a103.75,103.75,0,0,1-36-14.88c-1.93-1.25-3.81-2.58-5.65-4a10.47,10.47,0,0,1-3.23-12.61,11.93,11.93,0,0,1,2.69-3.69q21.27-21.15,42.54-42.34c.38-.37.74-.75,1.15-1.09a10.67,10.67,0,0,1,15.58,2.05,10.9,10.9,0,0,1,1.85,6.5c0,10,0,20,0,30.07h0Z"/><path d="M209.23,76.69Q198.59,66.05,188,55.43a10.93,10.93,0,0,1-3.29-5.9,10.67,10.67,0,0,1,9.57-12.47c.53-.05,1,0,1.58,0l60-.15a12.12,12.12,0,0,1,4.51.71A10.46,10.46,0,0,1,267,48.78c-.32,2.27-.72,4.54-1.19,6.79a103.78,103.78,0,0,1-15,36c-1.27,1.93-2.58,3.81-4,5.64a10.23,10.23,0,0,1-10.13,4.07,9.76,9.76,0,0,1-5.64-2.86L225.58,93,209.27,76.67Z"/><path d="M101.73,77.48,85.42,93.79c-1.82,1.82-3.64,3.64-5.48,5.45a9.79,9.79,0,0,1-5.64,2.86A10.22,10.22,0,0,1,64.17,98c-1.4-1.82-2.72-3.71-4-5.64a103.78,103.78,0,0,1-15-36c-.48-2.25-.87-4.52-1.19-6.79a10.46,10.46,0,0,1,6.63-11.2,12.12,12.12,0,0,1,4.51-.71l60,.15c.53,0,1,0,1.58,0a10.68,10.68,0,0,1,9.57,12.47,10.93,10.93,0,0,1-3.29,5.9q-10.67,10.6-21.27,21.26Z"/><path class="cls-1" d="M328.46,6a5.11,5.11,0,0,0-10.15-.45A5.1,5.1,0,0,0,328.46,6M323.33,0l.54,0h0a6.21,6.21,0,0,1,.85.12,6.37,6.37,0,0,1,1.42.46,6.14,6.14,0,0,1,2,1.39,5.06,5.06,0,0,1,.7.9,5.29,5.29,0,0,1,.79,2,4.67,4.67,0,0,1,.07,1c0,.21,0,.41-.05.62a4.62,4.62,0,0,1-.18.82,5.2,5.2,0,0,1-.43,1A6,6,0,0,1,328,9.74a5.41,5.41,0,0,1-1,.74,6.21,6.21,0,0,1-1.3.62,6.57,6.57,0,0,1-1.39.34c-.24,0-.48,0-.72.06h-.2l-.54,0h0a5.68,5.68,0,0,1-.92-.14A6.94,6.94,0,0,1,319,9.88a5.37,5.37,0,0,1-.74-.77,6,6,0,0,1-.76-1.25,5.22,5.22,0,0,1-.38-1.26c0-.21-.05-.44-.07-.65a1.09,1.09,0,0,1,0-.18l0-.48v0c0-.11,0-.22.05-.34a4.7,4.7,0,0,1,.18-.74,5.2,5.2,0,0,1,.43-1,5.68,5.68,0,0,1,2-2.11A6.75,6.75,0,0,1,321,.45a6,6,0,0,1,1.39-.33l.72-.06a.53.53,0,0,1,.18,0"/><path class="cls-1" d="M322.33,5.25h0c.23,0,.46,0,.7,0a3.25,3.25,0,0,0,.44,0,.62.62,0,0,0,.55-.43,1.18,1.18,0,0,0,0-.56.59.59,0,0,0-.46-.45,2.93,2.93,0,0,0-.41-.07l-.77,0h0Zm2.15.62a1.36,1.36,0,0,1,.71.45,4.4,4.4,0,0,1,.49.8c.26.53.53,1.07.8,1.6v0h0l-1.74-.06s-.06,0-.07,0l-.78-1.57a1.57,1.57,0,0,0-.34-.47.94.94,0,0,0-.58-.24l-.6,0h0l-.09,2.27-1.72-.07.23-6h0c.95,0,1.89.06,2.84.11a4.12,4.12,0,0,1,1.3.26,1.36,1.36,0,0,1,.9,1,2.22,2.22,0,0,1,0,.63,1.4,1.4,0,0,1-.91,1.16l-.39.13,0,0"/></g></g></svg>